<?xml version="1.0" encoding="iso-8859-1"?>
<!-- Uploaded to: SVG Repo, www.svgrepo.com, Generator: SVG Repo Mixer Tools -->
<svg fill="#000000" height="800px" width="800px" version="1.1" id="Layer_1" xmlns="http://www.w3.org/2000/svg" xmlns:xlink="http://www.w3.org/1999/xlink" 
	 viewBox="0 0 512.001 512.001" xml:space="preserve">
<g>
	<g>
		<path d="M221.489,105.983c-7.015,0-12.724,6.012-12.724,13.403c0,7.39,5.708,13.402,12.724,13.402s12.724-6.012,12.724-13.402
			C234.213,111.995,228.505,105.983,221.489,105.983z"/>
	</g>
</g>
<g>
	<g>
		<path d="M290.467,105.983c-7.018,0-12.726,6.012-12.726,13.403c0,7.39,5.708,13.402,12.726,13.402
			c7.014,0,12.721-6.012,12.721-13.402C303.188,111.995,297.481,105.983,290.467,105.983z"/>
	</g>
</g>
<g>
	<g>
		<path d="M276.269,149.341c-2.845-5.021-9.219-6.785-14.242-3.943c-0.662,0.375-2.772,1.086-6.012,1.086s-5.35-0.711-6.014-1.086
			c-5.02-2.843-11.397-1.078-14.24,3.945c-2.843,5.022-1.077,11.397,3.946,14.24c4.325,2.449,10.117,3.798,16.308,3.798
			c6.192,0,11.985-1.349,16.312-3.798C277.346,160.739,279.112,154.363,276.269,149.341z"/>
	</g>
</g>
<g>
	<g>
		<path d="M256.055,281.858c-5.771,0-10.449,4.679-10.449,10.449v0.498c0,5.77,4.678,10.449,10.449,10.449
			c5.77,0,10.449-4.679,10.449-10.449v-0.498C266.504,286.537,261.825,281.858,256.055,281.858z"/>
	</g>
</g>
<g>
	<g>
		<path d="M383.013,294.27c-0.266-0.562-21.86-46.182-33.396-70.662h1.076c5.77,0,10.449-4.678,10.449-10.449v-77.67
			c0-0.171-0.018-0.339-0.025-0.508c9.01-4.697,15.178-15.246,15.178-27.682c0-13.197-6.944-24.275-16.863-28.483
			C346.769,32.766,304.287,0,255.969,0c-48.337,0-90.833,32.791-103.478,78.871c-9.857,4.252-16.758,15.312-16.758,28.426
			c0,12.388,6.163,22.936,15.153,27.651v78.211c0,5.771,4.679,10.449,10.449,10.449h1.051
			c-11.537,24.482-33.135,70.111-33.424,70.722c-2.945,6.326-3.251,13.42-0.861,19.974c2.39,6.556,7.189,11.787,13.515,14.734
			c3.486,1.623,7.192,2.446,11.017,2.446c1.828,0,3.626-0.199,5.375-0.57l-19.036,58.748c-1.03,3.18-0.477,6.661,1.489,9.365
			s5.109,4.304,8.451,4.304h50.208v42.824h-11.665c-29.975,0-43.39,21.788-43.39,43.381c0,12.386,10.078,22.463,22.464,22.463
			h61.278c12.386,0,22.463-10.077,22.463-22.463v-86.205h11.451v86.209c0,12.384,10.076,22.459,22.459,22.459h61.249
			c12.384,0,22.459-10.076,22.459-22.459c0-21.584-13.412-43.364-43.377-43.364h-11.642v-42.845h50.249
			c3.343,0,6.485-1.6,8.451-4.304c1.966-2.704,2.519-6.185,1.489-9.365l-19.034-58.744c1.741,0.368,3.531,0.565,5.349,0.565
			c3.825,0,7.532-0.823,11.017-2.446c6.326-2.946,11.124-8.177,13.515-14.734C386.293,307.749,385.986,300.655,383.013,294.27z
			 M166.526,491.102c-0.863,0-1.566-0.702-1.566-1.565c0-3.404,0.799-8.543,3.043-12.759c1.611-3.028,3.849-5.328,6.731-6.934
			c7.833,4.974,13.443,12.513,15.939,21.258H166.526z M337.202,469.853c2.888,1.604,5.13,3.905,6.744,6.938
			c2.243,4.214,3.042,9.349,3.042,12.75c0,0.861-0.7,1.561-1.561,1.561h-24.152C323.769,482.361,329.375,474.826,337.202,469.853z
			 M255.969,20.898c38.882,0,73.051,26.35,83.271,63.38c-6.654,1.984-13.565,2.992-20.663,2.992
			c-20.973,0-40.921-9.096-54.728-24.956c-1.984-2.281-4.859-3.589-7.882-3.589s-5.897,1.308-7.882,3.589
			C234.28,78.174,214.332,87.27,193.358,87.27c-7.095,0-14.006-1.01-20.659-2.994C182.923,47.247,217.089,20.898,255.969,20.898z
			 M161.455,116.692c-1.922-0.054-4.824-3.827-4.824-9.394c0-2.424,0.551-4.508,1.331-6.094c11.221,4.62,23.1,6.964,35.397,6.964
			c23.252,0,45.521-8.674,62.609-24.106c17.088,15.433,39.357,24.106,62.609,24.106c12.32,0,24.214-2.352,35.448-6.986
			c0.794,1.565,1.373,3.637,1.373,6.116c0,5.769-3.131,9.364-4.836,9.399c-4.869,0.099-9.025,3.549-10.017,8.316
			c-8.289,39.799-43.859,68.685-84.575,68.685c-40.719,0-76.288-28.89-84.576-68.693
			C170.406,120.268,166.292,116.827,161.455,116.692z M340.245,173.58v29.131h-2.605c-5.275-4.9-12.138-7.494-18.491-8.841
			C327.045,188.1,334.157,181.277,340.245,173.58z M262.929,214.342c-2.079,1.06-4.425,1.67-6.915,1.67
			c-2.485,0-4.824-0.608-6.899-1.662c2.272,0.147,4.553,0.248,6.856,0.248C258.306,214.597,260.623,214.494,262.929,214.342z
			 M192.804,193.881c-6.338,1.349-13.179,3.943-18.44,8.829h-2.58v-29.017C177.855,181.35,184.941,188.137,192.804,193.881z
			 M157.438,307.436c-0.021,0.042-0.041,0.085-0.061,0.126c-0.855,1.837-2.719,3.023-4.746,3.023c-0.754,0-1.493-0.165-2.195-0.493
			c-2.611-1.216-3.747-4.33-2.559-6.882c0.327-0.691,32.804-69.302,39.385-83.408c1.428-3.063,6.235-4.84,11.269-5.722
			c-2.123,16.379-8.502,31.551-14.572,39.019c-0.509,0.627-0.934,1.314-1.285,2.04c-0.007-0.005-0.013-0.007-0.02-0.013
			L157.438,307.436z M227.803,491.102h-15.737c-1.608-8.729-5.192-16.941-10.362-24.033h27.665v22.467h0
			C229.369,490.4,228.667,491.102,227.803,491.102z M229.369,446.156h-9.353v-42.824h9.353V446.156z M299.882,491.102h-15.704
			c-0.861,0-1.561-0.7-1.561-1.561v-22.466h27.617C305.067,474.163,301.488,482.379,299.882,491.102z M282.616,446.171v-42.84h9.353
			v42.84H282.616z M163.279,382.433l38.165-117.781c8.098-10.854,16.37-30.478,18.303-52.242l1.93-0.218
			c3.722,11.096,12.683,19.806,23.928,23.187v23.124c0,5.771,4.678,10.449,10.449,10.449c5.77,0,10.449-4.679,10.449-10.449v-23.15
			c11.207-3.4,20.134-12.094,23.847-23.162l1.929,0.218c1.933,21.765,10.207,41.387,18.306,52.242l38.162,117.782H163.279z
			 M364.269,307.147c-0.277,0.76-0.996,2.151-2.703,2.946c-0.702,0.327-1.441,0.493-2.195,0.493c-2.027,0-3.891-1.187-4.746-3.023
			c-0.019-0.042-0.04-0.085-0.061-0.126l-24.992-51.839c-0.382-0.897-0.888-1.738-1.504-2.496
			c-6.07-7.466-12.449-22.636-14.573-39.01c5.029,0.883,9.818,2.657,11.244,5.714c6.582,14.106,39.058,82.717,39.357,83.349
			C364.892,304.858,364.546,306.387,364.269,307.147z"/>
	</g>
</g>
</svg>