<?xml version="1.0" encoding="iso-8859-1"?>
<!-- Uploaded to: SVG Repo, www.svgrepo.com, Generator: SVG Repo Mixer Tools -->
<!DOCTYPE svg PUBLIC "-//W3C//DTD SVG 1.1//EN" "http://www.w3.org/Graphics/SVG/1.1/DTD/svg11.dtd">
<svg fill="#000000" version="1.1" id="Capa_1" xmlns="http://www.w3.org/2000/svg" xmlns:xlink="http://www.w3.org/1999/xlink" 
	 width="800px" height="800px" viewBox="0 0 570.468 570.467"
	 xml:space="preserve">
<g>
	<g>
		<path d="M269.04,283.656v-0.612l0,0c0-9.429-8.434-16.486-17.858-16.486h-4.141c-1.363,0-2.142-1.057-1.745-2.357l7.602-24.853
			c0.397-1.3-0.383-2.357-1.745-2.357H202.36c-1.362,0-2.065,1.028-1.578,2.3l9.625,24.968c0.488,1.271-0.215,2.3-1.578,2.3h-49.701
			c-9.429,0-15.726,7.057-15.726,16.486v0.607c0,9.429,6.302,17.394,15.726,17.394h92.054
			C260.606,301.051,269.04,293.084,269.04,283.656z"/>
		<circle cx="414.198" cy="59.985" r="57.15"/>
		<circle cx="103.499" cy="169.585" r="35.295"/>
		<path d="M163.996,464.454c9.983,0,18.073-8.09,18.073-18.072v-64.154c0-5.924-2.907-11.48-7.774-14.852l-32.072-18.512
			c-2.042-1.297-2.788-3.768-2.788-5.031l-4.399-99.507l61.817-16.715c8.951-2.3,14.344-11.422,12.039-20.373
			c-2.3-8.95-11.408-14.344-20.373-12.044L84.656,223.197c-0.44,0.115-0.822,0.315-1.243,0.459
			c-5.661,1.392-9.969,6.086-10.806,11.944c-0.358,1.525-0.574,3.098-0.483,4.709l-11.47,110.294
			c0,7.984,6.474,14.457,14.458,14.457h32.412l38.408,26.627v54.693C145.923,456.364,154.013,464.454,163.996,464.454z"/>
		<path d="M471.349,567.633c18.484,0,33.469-14.984,33.469-33.469v-142.85h45.991c17.428,0,22.51-15.801,18.222-26.396
			l-54.444-211.312c-4.504-12.752-12.288-20.607-20.607-20.607h-78.394c-5.039,0-9.596,1.879-13.177,4.887
			c-1.803,1.291-3.52,2.739-4.991,4.537l-42.468,51.102h-43.687c-7.783,0-14.678,3.524-19.401,8.984h-55.521
			c-2.018,0-3.658,1.368-3.658,3.385c0,0.373,0.583,10.131,16.763,10.131c6.158,0,11.499-2.199,14.224-4.332
			c1.071-0.842,2.769-1.793,4.131-1.793h19.526c-1.143,2.912-1.822,6.062-1.822,9.381c0,14.224,11.528,25.756,25.756,25.756h55.869
			c7.717,0,15.022-3.461,19.909-9.419l8.678-10.461L365.004,359.86c-7.238,24.289,5.829,31.455,15.473,31.455h57.403v142.85
			C437.88,552.649,452.864,567.633,471.349,567.633z"/>
		<path d="M30.04,405.377h5.584L8.849,554.084c-0.937,5.197,2.52,10.168,7.717,11.105c0.574,0.102,1.143,0.148,1.707,0.148
			c4.538,0,8.568-3.246,9.4-7.869l18.063-100.316h45.097l18.063,100.316c0.832,4.623,4.863,7.869,9.4,7.869
			c0.564,0,1.133-0.047,1.707-0.148c5.197-0.938,8.654-5.908,7.717-11.105l-26.775-148.707h5.905
			c7.984,0,14.458-6.475,14.458-14.459s-6.474-14.459-14.458-14.459H42.7L28.787,272c-1.052-7.913-8.339-13.435-16.237-12.426
			c-7.918,1.052-13.474,8.324-12.422,16.237l15.587,117.011C16.662,400.012,22.791,405.377,30.04,405.377z M55.055,405.377h26.45
			l5.881,32.656H49.174L55.055,405.377z"/>
	</g>
</g>
</svg>