<?xml version="1.0" encoding="iso-8859-1"?>
<!-- Uploaded to: SVG Repo, www.svgrepo.com, Generator: SVG Repo Mixer Tools -->
<svg fill="#000000" height="800px" width="800px" version="1.1" id="Capa_1" xmlns="http://www.w3.org/2000/svg" xmlns:xlink="http://www.w3.org/1999/xlink" 
	 viewBox="0 0 490 490" xml:space="preserve">
<g id="line_16_">
	<path d="M245,490c0,0,200.333-88.047,200.333-214.375s0-214.375,0-214.375s-12.112,1.73-31.054,1.73
		C372.354,62.98,296.863,54.497,245,0C193.137,54.497,117.661,62.98,75.705,62.98c-18.942,0-31.038-1.73-31.038-1.73
		s0,88.047,0,214.375S245,490,245,490z M75.292,93.605c0.138,0,0.276,0,0.429,0c40.348,0,111.812-7.335,169.295-52.353
		c57.483,45.019,128.931,52.353,169.295,52.353c0.138,0,0.276,0,0.429,0v182.02c0,80.59-112.93,152.681-169.739,180.58
		c-56.855-27.807-169.708-99.73-169.708-180.58V93.605z"/>
	<polygon points="361.023,163.645 335.696,146.433 228.355,304.504 161.991,257.403 144.259,282.362 236.134,347.563 	"/>
</g>
</svg>