<?xml version="1.0" encoding="UTF-8"?>
<!-- The Best Svg Icon site in the world: iconSvg.co, Visit us! https://iconsvg.co -->
<svg width="800px" height="800px" version="1.1" viewBox="144 144 512 512" xmlns="http://www.w3.org/2000/svg">
 <defs>
  <clipPath id="b">
   <path d="m148.09 169h356.91v482.9h-356.91z"/>
  </clipPath>
  <clipPath id="a">
   <path d="m400 546h105v105.9h-105z"/>
  </clipPath>
 </defs>
 <g clip-path="url(#b)">
  <path d="m504.96 441.98v104.96l-20.992 20.992v-127.44c6.8594 0.98047 13.867 1.4883 20.992 1.4883zm-75.73-272.9c-9.8477 5.9336-18.941 12.992-27.109 20.992h-233.03v440.83h251.91l-20.992 20.992h-251.91v-482.82zm-57.07 62.977c-3.1992 6.7305-5.8984 13.742-8.0586 20.992h-153.03v-20.992zm-14.141 62.977c0 7.125 0.50781 14.137 1.4883 20.992h-148.43v-20.992zm14.141 62.977c3.4922 7.3516 7.5781 14.371 12.195 20.992h-173.28v-20.992zm57.07 62.977c4.125 2.4844 8.3828 4.7695 12.758 6.8477v14.145h-230.91v-20.992zm-218.16 62.973h230.91v20.992h-230.91zm0 62.977h146.95v20.992h-146.95z" fill-rule="evenodd"/>
 </g>
 <path d="m496.24 361.11 18.676 26.254c3.3516 4.7109 1.8867 10.48-3.2539 12.879l-23.363 10.891c-5.1484 2.4023-11.98 0.60938-15.391-4.1836l-18.676-26.254z" fill-rule="evenodd"/>
 <path d="m389.07 330.03c-7.3555-15.77-0.48828-34.535 15.223-41.859l28.535-13.309 35.488 76.102-28.535 13.309c-15.762 7.3477-34.562 0.39844-41.855-15.246z" fill-rule="evenodd"/>
 <path d="m602.78 241.94c-2.4492-5.2539-0.36328-11.41 5.168-13.988l18.848-8.7891c5.3008-2.4727 11.66-0.066406 14.035 5.0352 2.4492 5.2539 0.36328 11.41-5.1641 13.988l-18.848 8.7891c-5.3047 2.4727-11.66 0.066406-14.039-5.0352z" fill-rule="evenodd"/>
 <path d="m568.2 208.15c-4.4414-3.7266-5.1523-10.188-1.2305-14.863l13.367-15.93c3.7617-4.4805 10.539-4.9844 14.848-1.3672 4.4414 3.7227 5.1523 10.188 1.2305 14.859l-13.363 15.934c-3.7617 4.4805-10.543 4.9844-14.852 1.3672z" fill-rule="evenodd"/>
 <path d="m606.43 290.14c0 5.7969 4.4961 10.496 10.594 10.496h20.797c5.8516 0 10.594-4.8672 10.594-10.496 0-5.7969-4.4922-10.496-10.594-10.496h-20.797c-5.8477 0-10.594 4.8711-10.594 10.496z" fill-rule="evenodd"/>
 <path d="m454.56 271.79c-2.4727-5.3008-1.1172-13.18 2.7109-17.258l66.891-57 62.102 133.18-86.656 14.602c-5.793 0.32422-12.48-3.6797-14.969-9.0156z" fill-rule="evenodd"/>
 <path d="m514.66 201.97c-2.4531-5.2578-0.027344-11.578 5.0742-13.957 5.2539-2.4492 11.559-0.042969 13.949 5.0859l62.094 133.16c2.4531 5.2578 0.027343 11.578-5.0703 13.957-5.2539 2.4492-11.562 0.042969-13.953-5.0859z" fill-rule="evenodd"/>
 <g clip-path="url(#a)">
  <path d="m400 546.94h104.96l-104.96 104.96z" fill-rule="evenodd"/>
 </g>
</svg>